<?xml version="1.0" standalone="no"?>
<!DOCTYPE svg PUBLIC "-//W3C//DTD SVG 20010904//EN"
 "http://www.w3.org/TR/2001/REC-SVG-20010904/DTD/svg10.dtd">
<svg version="1.0" xmlns="http://www.w3.org/2000/svg"
 width="281.000000pt" height="281.000000pt" viewBox="0 0 281.000000 281.000000"
 preserveAspectRatio="xMidYMid meet">
<metadata>
Created by potrace 1.14, written by Peter Selinger 2001-2017
</metadata>
<g transform="translate(0.000000,281.000000) scale(0.100000,-0.100000)"
fill="#000000" stroke="none">
<path d="M2695 2679 c-55 -10 -135 -24 -178 -32 -43 -8 -79 -16 -82 -18 -2 -2
-51 -229 -109 -504 -197 -936 -296 -1400 -300 -1411 -3 -8 15 -8 62 1 37 7
121 23 187 36 66 13 122 24 124 25 3 2 57 247 75 335 2 13 12 58 21 99 9 41
19 86 21 100 3 14 56 266 119 560 137 641 175 822 175 827 0 4 5 5 -115 -18z"/>
<path d="M1065 2048 c-158 -21 -348 -106 -495 -223 -58 -45 -210 -205 -261
-275 -150 -201 -260 -457 -294 -685 -6 -39 -7 -210 -1 -250 12 -91 49 -192 98
-263 167 -247 503 -306 874 -154 l52 21 -14 -57 c-20 -86 -19 -95 14 -88 15 4
41 9 57 12 167 29 287 53 292 58 4 4 23 83 39 166 6 28 59 278 104 485 17 77
32 149 34 160 8 41 137 643 156 725 47 209 48 198 -25 235 -229 115 -436 159
-630 133z m223 -382 c61 -20 61 -18 31 -143 -11 -48 -22 -97 -25 -108 -5 -27
-33 -151 -89 -395 -25 -113 -48 -216 -51 -229 -14 -67 -33 -141 -39 -151 -4
-7 -53 -34 -109 -61 -280 -133 -472 -126 -563 21 -87 143 -57 431 70 660 78
141 218 290 328 350 112 61 180 79 294 75 55 -2 124 -10 153 -19z"/>
<path d="M2200 575 c-74 -14 -150 -27 -169 -30 -19 -3 -36 -7 -38 -8 -4 -5
-140 -462 -138 -465 4 -5 380 60 387 67 6 5 138 441 138 455 0 10 -39 6 -180
-19z"/>
</g>
</svg>
